<svg width="81" height="81" viewBox="0 0 81 81" fill="none" xmlns="http://www.w3.org/2000/svg">
<path d="M40.4998 0.464966C18.389 0.464966 0.464844 18.3891 0.464844 40.5C0.464844 62.6108 18.389 80.535 40.4998 80.535C62.6107 80.535 80.5348 62.6108 80.5348 40.5C80.5348 18.3891 62.6107 0.464966 40.4998 0.464966Z" fill="#1D271C"/>
<path d="M40.6768 55.9775L40.6768 20.8062" stroke="#67A497" stroke-width="6.86763"/>
<path d="M33.4561 52.3927L30.0708 53.719C31.716 57.9171 36.4522 59.9876 40.6503 58.3423L39.324 54.957C36.9952 55.8696 34.3687 54.7215 33.4561 52.3927Z" fill="#DE304F"/>
<path d="M45.8282 20.0393H41.7135C41.7135 20.0393 41.7135 43.6008 41.7135 49.068C41.7135 53.8041 39.6283 55.8893 36.3019 55.8893C33.4841 55.8893 31.4545 54.4795 30.4405 53.2971L27.4526 55.6636C28.411 57.1862 31.8486 59.9484 36.472 59.9484C42.6718 59.9484 45.8282 55.8893 45.8282 48.9567C45.8282 42.2483 45.8282 20.0393 45.8282 20.0393Z" fill="#F1E0E0"/>
</svg>
