<svg width="47" height="25" viewBox="0 0 47 25" fill="none" xmlns="http://www.w3.org/2000/svg">
<path d="M45.9655 0.955997C45.3028 0.343873 44.4043 -8.34465e-07 43.4673 -8.34465e-07C42.5304 -8.34465e-07 41.6318 0.343873 40.9692 0.955997L23.4787 17.1186L5.98816 0.955997C5.32174 0.36122 4.42919 0.0321094 3.50273 0.0395499C2.57628 0.0469886 1.69005 0.390382 1.03492 0.99577C0.379789 1.60116 0.00818813 2.42011 0.000135303 3.27622C-0.00791371 4.13234 0.348238 4.95713 0.99188 5.57294L20.9805 24.044C21.6431 24.6561 22.5417 25 23.4787 25C24.4156 25 25.3142 24.6561 25.9768 24.044L45.9655 5.57294C46.6279 4.96063 47 4.13028 47 3.26447C47 2.39867 46.6279 1.56831 45.9655 0.955997Z" fill="#999A8A" fill-opacity="0.58"/>
</svg>
