<svg width="39" height="39" viewBox="0 0 39 39" fill="none" xmlns="http://www.w3.org/2000/svg">
<g clip-path="url(#clip0_259_4403)">
<path d="M39 19.6189C39 8.78182 30.2689 -0.00292969 19.5 -0.00292969C8.72624 -0.000492187 -0.00488281 8.78182 -0.00488281 19.6214C-0.00488281 29.4128 7.12724 37.5297 16.4482 39.0019V25.291H11.5001V19.6214H16.4531V15.2948C16.4531 10.3784 19.3659 7.66301 23.8192 7.66301C25.9545 7.66301 28.1848 8.0457 28.1848 8.0457V12.8719H25.7254C23.3049 12.8719 22.5493 14.3856 22.5493 15.9383V19.6189H27.9557L27.0928 25.2886H22.5469V38.9995C31.8679 37.5273 39 29.4104 39 19.6189Z" fill="#FCFCFC"/>
</g>
<defs>
<clipPath id="clip0_259_4403">
<rect width="39" height="39" fill="white"/>
</clipPath>
</defs>
</svg>
