<svg width="37" height="37" viewBox="0 0 37 37" fill="none" xmlns="http://www.w3.org/2000/svg">
<g id="bxs:dog">
<path id="Vector" d="M32.3749 9.25016H29.2916L27.3337 7.29225C26.6256 6.58343 25.6684 6.17954 24.6666 6.16683H20.8124C20.5965 5.30164 20.1024 4.53132 19.4061 3.97426C18.7097 3.4172 17.8497 3.10425 16.9583 3.0835V12.8885C17.0375 14.4455 17.653 15.9271 18.7003 17.0818C20.4248 18.7396 22.6803 19.7336 25.0674 19.8877L30.3862 17.7602C31.0102 17.5097 31.5721 17.1261 32.0328 16.6362C32.4934 16.1463 32.8416 15.5618 33.0533 14.9235L33.9166 12.5647C33.94 12.4063 33.94 12.2453 33.9166 12.0868V10.7918C33.9166 10.383 33.7542 9.99083 33.465 9.70171C33.1759 9.41259 32.7838 9.25016 32.3749 9.25016ZM24.6666 12.3335C24.3617 12.3335 24.0636 12.2431 23.8101 12.0737C23.5566 11.9043 23.359 11.6635 23.2423 11.3818C23.1256 11.1001 23.0951 10.7901 23.1545 10.4911C23.214 10.192 23.3609 9.91731 23.5765 9.70171C23.7921 9.4861 24.0668 9.33927 24.3658 9.27979C24.6649 9.2203 24.9749 9.25083 25.2566 9.36752C25.5383 9.4842 25.779 9.6818 25.9484 9.93533C26.1178 10.1889 26.2083 10.4869 26.2083 10.7918C26.2083 11.2007 26.0458 11.5928 25.7567 11.882C25.4676 12.1711 25.0755 12.3335 24.6666 12.3335Z" fill="#4B4434"/>
<path id="Vector_2" d="M17.5441 18.0992C16.4687 16.9214 15.7659 15.4515 15.5245 13.875H9.24992C8.83796 13.9023 8.42493 13.8412 8.03849 13.6959C7.65204 13.5506 7.3011 13.3244 7.00917 13.0324C6.71723 12.7405 6.49103 12.3895 6.34572 12.0031C6.20041 11.6167 6.13933 11.2036 6.16659 10.7917C6.16659 10.3828 6.00416 9.99066 5.71504 9.70154C5.42592 9.41243 5.03379 9.25 4.62492 9.25C4.21604 9.25 3.82391 9.41243 3.5348 9.70154C3.24568 9.99066 3.08325 10.3828 3.08325 10.7917C3.09874 11.8615 3.35148 12.9146 3.82325 13.875C4.34333 14.8834 5.16158 15.7071 6.16659 16.2337V33.9167H10.7916V26.2083H20.0416V33.9167H24.6666V21.3829C21.9772 21.1711 19.4517 20.0067 17.5441 18.0992Z" fill="#4B4434"/>
</g>
</svg>
