<svg width="32" height="28" viewBox="0 0 32 28" fill="none" xmlns="http://www.w3.org/2000/svg">
<path d="M3.20391 27.3C2.40391 27.3 1.70391 27 1.10391 26.4C0.570573 25.8 0.303906 25.1 0.303906 24.3C0.303906 23.2333 0.803906 22.4 1.80391 21.8C3.47057 20.8 4.73724 19.6333 5.60391 18.3C6.47057 16.9667 6.90391 15.0333 6.90391 12.5H6.50391C4.97057 12.5 3.63724 11.9667 2.50391 10.9C1.43724 9.76666 0.903907 8.43333 0.903907 6.89999V6.3C0.903907 4.76666 1.43724 3.46666 2.50391 2.4C3.63724 1.26666 4.97057 0.699997 6.50391 0.699997H7.50391C9.03724 0.699997 10.3372 1.26666 11.4039 2.4C12.5372 3.46666 13.1039 4.76666 13.1039 6.3V12.2C13.1039 18.6 10.3706 23.4667 4.90391 26.8C4.37057 27.1333 3.80391 27.3 3.20391 27.3ZM21.3039 27.3C20.5039 27.3 19.8039 27 19.2039 26.4C18.6706 25.8 18.4039 25.1 18.4039 24.3C18.4039 23.2333 18.9039 22.4 19.9039 21.8C21.5706 20.8 22.8372 19.6333 23.7039 18.3C24.5706 16.9667 25.0039 15.0333 25.0039 12.5H24.6039C23.0706 12.5 21.7372 11.9667 20.6039 10.9C19.5372 9.76666 19.0039 8.43333 19.0039 6.89999V6.3C19.0039 4.76666 19.5372 3.46666 20.6039 2.4C21.7372 1.26666 23.0706 0.699997 24.6039 0.699997H25.6039C27.1372 0.699997 28.4372 1.26666 29.5039 2.4C30.6372 3.46666 31.2039 4.76666 31.2039 6.3V12.2C31.2039 18.6 28.4706 23.4667 23.0039 26.8C22.5372 27.1333 21.9706 27.3 21.3039 27.3Z" fill="#4B4434"/>
</svg>
