<svg width="32" height="32" viewBox="0 0 32 32" fill="none" xmlns="http://www.w3.org/2000/svg">
<g opacity="0.58">
<path d="M16.1358 12.8C12.5214 12.7441 9.76032 9.83845 9.73587 6.4C9.79557 2.81779 12.7235 0.02512 16.1358 0C19.7535 0.1368 22.5101 2.90587 22.5359 6.4C22.4647 9.98504 19.5517 12.7757 16.1358 12.8ZM21.3103 14.1277C25.8594 14.1808 28.1662 18.1711 28.1871 22.1615V32H23.7275L23.7275 23.3532C23.619 22.7555 23.2141 22.5527 22.8432 22.6114C22.4959 22.6663 22.1784 22.9501 22.1616 23.3532V32H9.77037V23.3532C9.67552 22.7843 9.31363 22.5656 8.96155 22.5877C8.58453 22.6114 8.2188 22.9113 8.2044 23.3532V32H3.81293V22.1615C3.7868 17.9089 6.47696 14.1592 10.7233 14.1277H21.3103Z" fill="#4B4434"/>
</g>
</svg>
