<svg width="22" height="31" viewBox="0 0 22 31" fill="none" xmlns="http://www.w3.org/2000/svg">
<g opacity="0.58">
<path d="M21.4653 7.3701L15.8889 12.9167V28.5686C15.8889 29.1511 15.6788 29.6514 15.2587 30.0692C14.8385 30.4871 14.3356 30.6961 13.75 30.6961C13.1644 30.6961 12.6615 30.4871 12.2413 30.0692C11.8212 29.6514 11.6111 29.1511 11.6111 28.5686V21.2745H10.3889V28.5686C10.3889 29.1511 10.1788 29.6514 9.75868 30.0692C9.33854 30.4871 8.83565 30.6961 8.25 30.6961C7.66435 30.6961 7.16146 30.4871 6.74132 30.0692C6.32118 29.6514 6.11111 29.1511 6.11111 28.5686V12.9167L0.534722 7.3701C0.178241 7.01552 0 6.58497 0 6.07843C0 5.5719 0.178241 5.14134 0.534722 4.78677C0.903935 4.43219 1.33999 4.2549 1.84288 4.2549C2.34578 4.2549 2.77546 4.43219 3.13194 4.78677L7.48611 9.11765H14.5139L18.8681 4.78677C19.2245 4.43219 19.6574 4.2549 20.1667 4.2549C20.6759 4.2549 21.1088 4.43219 21.4653 4.78677C21.8218 5.154 22 5.58772 22 6.08793C22 6.58813 21.8218 7.01552 21.4653 7.3701ZM15.2778 4.2549C15.2778 5.4326 14.8608 6.43617 14.0269 7.26563C13.193 8.09508 12.184 8.5098 11 8.5098C9.81597 8.5098 8.807 8.09508 7.97309 7.26563C7.13918 6.43617 6.72222 5.4326 6.72222 4.2549C6.72222 3.07721 7.13918 2.07363 7.97309 1.24418C8.807 0.414726 9.81597 0 11 0C12.184 0 13.193 0.414726 14.0269 1.24418C14.8608 2.07363 15.2778 3.07721 15.2778 4.2549Z" fill="#4B4434"/>
</g>
</svg>
