<svg width="28" height="28" viewBox="0 0 28 28" fill="none" xmlns="http://www.w3.org/2000/svg">
<g opacity="0.58">
<path fill-rule="evenodd" clip-rule="evenodd" d="M13.3117 2.35303C14.2334 2.43469 14.7735 2.74969 15.1014 3.11369C15.5015 3.55819 15.75 4.26053 15.75 5.24986C15.7502 5.55942 15.6682 5.86347 15.5125 6.13101C15.3568 6.39855 15.1329 6.61999 14.8637 6.77276C14.5944 6.92552 14.2895 7.00414 13.98 7.00058C13.6704 6.99703 13.3674 6.91143 13.1017 6.75253L12.95 6.64986C12.8275 6.55794 12.688 6.49105 12.5396 6.45303C12.3912 6.415 12.2367 6.40659 12.085 6.42825C11.9334 6.44992 11.7875 6.50125 11.6556 6.57931C11.5238 6.65737 11.4086 6.76063 11.3167 6.88319C11.2248 7.00576 11.1579 7.14523 11.1199 7.29365C11.0819 7.44207 11.0734 7.59652 11.0951 7.74819C11.1389 8.0545 11.3025 8.33088 11.55 8.51653C12.1567 8.97152 12.8781 9.24859 13.6333 9.3167C14.3886 9.3848 15.1479 9.24124 15.8262 8.90211C16.5044 8.56297 17.0749 8.04167 17.4735 7.3966C17.8722 6.75153 18.0834 6.00818 18.0834 5.24986C18.0834 4.45069 17.9644 3.65269 17.6774 2.92469C22.3184 4.46469 25.6667 8.84086 25.6667 13.9999C25.6667 20.4434 20.4435 25.6665 14 25.6665C7.55654 25.6665 2.33337 20.4434 2.33337 13.9999C2.33337 7.78736 7.18904 2.71003 13.3117 2.35303ZM17.08 17.7705C16.8424 17.5726 16.5358 17.4771 16.2278 17.5051C15.9198 17.5331 15.6355 17.6823 15.4374 17.9199C15.0185 18.4215 14.5064 18.6665 14 18.6665C13.4937 18.6665 12.9815 18.4215 12.5627 17.9199C12.3622 17.6906 12.0799 17.5489 11.7763 17.525C11.4727 17.501 11.1717 17.5968 10.9378 17.7918C10.7038 17.9868 10.5553 18.2655 10.5241 18.5685C10.4929 18.8714 10.5814 19.1746 10.7707 19.4132C11.5547 20.3547 12.6887 20.9999 14 20.9999C15.3114 20.9999 16.4454 20.3547 17.2294 19.4132C17.4273 19.1755 17.5228 18.869 17.4948 18.5609C17.4668 18.2529 17.3176 17.9686 17.08 17.7705ZM9.91671 11.6665C9.45258 11.6665 9.00746 11.8509 8.67927 12.1791C8.35108 12.5073 8.16671 12.9524 8.16671 13.4165C8.16671 13.8807 8.35108 14.3258 8.67927 14.654C9.00746 14.9822 9.45258 15.1665 9.91671 15.1665C10.3808 15.1665 10.826 14.9822 11.1541 14.654C11.4823 14.3258 11.6667 13.8807 11.6667 13.4165C11.6667 12.9524 11.4823 12.5073 11.1541 12.1791C10.826 11.8509 10.3808 11.6665 9.91671 11.6665ZM18.0834 11.6665C17.6192 11.6665 17.1741 11.8509 16.8459 12.1791C16.5177 12.5073 16.3334 12.9524 16.3334 13.4165C16.3334 13.8807 16.5177 14.3258 16.8459 14.654C17.1741 14.9822 17.6192 15.1665 18.0834 15.1665C18.5475 15.1665 18.9926 14.9822 19.3208 14.654C19.649 14.3258 19.8334 13.8807 19.8334 13.4165C19.8334 12.9524 19.649 12.5073 19.3208 12.1791C18.9926 11.8509 18.5475 11.6665 18.0834 11.6665Z" fill="#4B4434"/>
</g>
</svg>
