<svg width="36" height="34" viewBox="0 0 36 34" fill="none" xmlns="http://www.w3.org/2000/svg">
<path d="M9.60001 17L16.8 22.6666L26.4 11.3333M18 32.8666C15.7938 32.8666 13.6092 32.4562 11.5709 31.6589C9.53266 30.8615 7.68064 29.6928 6.12062 28.2194C4.56059 26.746 3.32312 24.9969 2.47884 23.0719C1.63456 21.1468 1.20001 19.0836 1.20001 17C1.20001 14.9163 1.63456 12.8531 2.47884 10.9281C3.32312 9.00303 4.56059 7.2539 6.12062 5.78054C7.68064 4.30718 9.53266 3.13845 11.5709 2.34108C13.6092 1.5437 15.7938 1.1333 18 1.1333C22.4556 1.1333 26.7288 2.80496 29.8794 5.78054C33.03 8.75612 34.8 12.7919 34.8 17C34.8 21.2081 33.03 25.2438 29.8794 28.2194C26.7288 31.195 22.4556 32.8666 18 32.8666Z" stroke="#6B9172"/>
</svg>
