<svg width="34" height="34" viewBox="0 0 34 34" fill="none" xmlns="http://www.w3.org/2000/svg">
<path d="M9.06663 17L15.8666 22.6666L24.9333 11.3333M17 32.8666C14.9163 32.8666 12.8531 32.4562 10.9281 31.6589C9.00302 30.8615 7.2539 29.6928 5.78054 28.2194C4.30718 26.746 3.13845 24.9969 2.34108 23.0719C1.5437 21.1468 1.1333 19.0836 1.1333 17C1.1333 14.9163 1.5437 12.8531 2.34108 10.9281C3.13845 9.00302 4.30718 7.2539 5.78054 5.78054C7.2539 4.30718 9.00302 3.13845 10.9281 2.34108C12.8531 1.5437 14.9163 1.1333 17 1.1333C21.2081 1.1333 25.2438 2.80496 28.2194 5.78054C31.195 8.75612 32.8666 12.7919 32.8666 17C32.8666 21.2081 31.195 25.2438 28.2194 28.2194C25.2438 31.195 21.2081 32.8666 17 32.8666Z" stroke="black"/>
</svg>
