<svg width="32" height="28" viewBox="0 0 32 28" fill="none" xmlns="http://www.w3.org/2000/svg">
<path d="M6.37383 27.3C4.8405 27.3 3.50716 26.7667 2.37383 25.7C1.30716 24.5667 0.773828 23.2333 0.773828 21.7V15.8C0.773828 9.4 3.50716 4.53333 8.97383 1.2C9.44049 0.866663 10.0072 0.699997 10.6738 0.699997C11.4738 0.699997 12.1405 0.999997 12.6738 1.6C13.2738 2.2 13.5738 2.9 13.5738 3.69999C13.5738 4.76666 13.0738 5.6 12.0738 6.2C10.4072 7.2 9.1405 8.36666 8.27383 9.69999C7.40716 11.0333 6.97383 12.9667 6.97383 15.5H7.37383C8.90716 15.5 10.2072 16.0667 11.2738 17.2C12.4072 18.2667 12.9738 19.5667 12.9738 21.1V21.7C12.9738 23.2333 12.4072 24.5667 11.2738 25.7C10.2072 26.7667 8.90716 27.3 7.37383 27.3H6.37383ZM24.4738 27.3C22.9405 27.3 21.6072 26.7667 20.4738 25.7C19.4072 24.5667 18.8738 23.2333 18.8738 21.7V15.8C18.8738 9.4 21.6072 4.53333 27.0738 1.2C27.5405 0.866663 28.1072 0.699997 28.7738 0.699997C29.5738 0.699997 30.2405 0.999997 30.7738 1.6C31.3738 2.2 31.6738 2.9 31.6738 3.69999C31.6738 4.76666 31.1738 5.6 30.1738 6.2C28.5072 7.2 27.2405 8.36666 26.3738 9.69999C25.5072 11.0333 25.0738 12.9667 25.0738 15.5H25.4738C27.0072 15.5 28.3072 16.0667 29.3738 17.2C30.5072 18.2667 31.0738 19.5667 31.0738 21.1V21.7C31.0738 23.2333 30.5072 24.5667 29.3738 25.7C28.3072 26.7667 27.0072 27.3 25.4738 27.3H24.4738Z" fill="#4B4434"/>
</svg>
